<mxfile host="app.diagrams.net" modified="2023-09-11T01:04:34.407Z" agent="Mozilla/5.0 (Windows NT 10.0; Win64; x64) AppleWebKit/537.36 (KHTML, like Gecko) Chrome/116.0.0.0 Safari/537.36 Edg/116.0.1938.76" etag="KfHaeiLK3OUcBFdP6zfz" version="21.7.4" type="device" pages="3">
  <diagram id="NEHD2kZEJvYWs2-_3NYI" name="Start Combat">
    <mxGraphModel dx="2066" dy="1111" grid="1" gridSize="10" guides="1" tooltips="1" connect="1" arrows="1" fold="1" page="1" pageScale="1" pageWidth="850" pageHeight="1100" math="0" shadow="0">
      <root>
        <mxCell id="0" />
        <mxCell id="1" parent="0" />
        <mxCell id="_7RisfW2_EcUqP_K5y7g-1" style="edgeStyle=orthogonalEdgeStyle;rounded=0;orthogonalLoop=1;jettySize=auto;html=1;exitX=0.5;exitY=1;exitDx=0;exitDy=0;entryX=0.5;entryY=0;entryDx=0;entryDy=0;" edge="1" parent="1" source="_7RisfW2_EcUqP_K5y7g-2" target="_7RisfW2_EcUqP_K5y7g-6">
          <mxGeometry relative="1" as="geometry" />
        </mxCell>
        <mxCell id="_7RisfW2_EcUqP_K5y7g-2" value="Player starts encounter" style="rounded=0;whiteSpace=wrap;html=1;" vertex="1" parent="1">
          <mxGeometry x="330" y="160" width="120" height="60" as="geometry" />
        </mxCell>
        <mxCell id="_7RisfW2_EcUqP_K5y7g-25" style="edgeStyle=orthogonalEdgeStyle;rounded=0;orthogonalLoop=1;jettySize=auto;html=1;exitX=0.5;exitY=1;exitDx=0;exitDy=0;entryX=0.5;entryY=0;entryDx=0;entryDy=0;" edge="1" parent="1" source="_7RisfW2_EcUqP_K5y7g-3" target="_7RisfW2_EcUqP_K5y7g-24">
          <mxGeometry relative="1" as="geometry" />
        </mxCell>
        <mxCell id="_7RisfW2_EcUqP_K5y7g-3" value="Player selects pokemon to fight with from current list of pokemon" style="rounded=0;whiteSpace=wrap;html=1;" vertex="1" parent="1">
          <mxGeometry x="230" y="850" width="120" height="70" as="geometry" />
        </mxCell>
        <mxCell id="_7RisfW2_EcUqP_K5y7g-4" style="edgeStyle=orthogonalEdgeStyle;rounded=0;orthogonalLoop=1;jettySize=auto;html=1;exitX=0.25;exitY=1;exitDx=0;exitDy=0;entryX=0.5;entryY=0;entryDx=0;entryDy=0;" edge="1" parent="1" source="_7RisfW2_EcUqP_K5y7g-6" target="_7RisfW2_EcUqP_K5y7g-8">
          <mxGeometry relative="1" as="geometry" />
        </mxCell>
        <mxCell id="_7RisfW2_EcUqP_K5y7g-5" style="edgeStyle=orthogonalEdgeStyle;rounded=0;orthogonalLoop=1;jettySize=auto;html=1;exitX=0.75;exitY=1;exitDx=0;exitDy=0;" edge="1" parent="1" source="_7RisfW2_EcUqP_K5y7g-6" target="_7RisfW2_EcUqP_K5y7g-10">
          <mxGeometry relative="1" as="geometry" />
        </mxCell>
        <mxCell id="_7RisfW2_EcUqP_K5y7g-6" value="Check pokemon status" style="rounded=0;whiteSpace=wrap;html=1;" vertex="1" parent="1">
          <mxGeometry x="330" y="260" width="120" height="60" as="geometry" />
        </mxCell>
        <mxCell id="_7RisfW2_EcUqP_K5y7g-7" style="edgeStyle=orthogonalEdgeStyle;rounded=0;orthogonalLoop=1;jettySize=auto;html=1;exitX=0.5;exitY=1;exitDx=0;exitDy=0;entryX=0.5;entryY=0;entryDx=0;entryDy=0;" edge="1" parent="1" source="_7RisfW2_EcUqP_K5y7g-8" target="_7RisfW2_EcUqP_K5y7g-22">
          <mxGeometry relative="1" as="geometry" />
        </mxCell>
        <mxCell id="_7RisfW2_EcUqP_K5y7g-8" value="Has available pokemon" style="rounded=0;whiteSpace=wrap;html=1;" vertex="1" parent="1">
          <mxGeometry x="230" y="360" width="120" height="60" as="geometry" />
        </mxCell>
        <mxCell id="_7RisfW2_EcUqP_K5y7g-9" style="edgeStyle=orthogonalEdgeStyle;rounded=0;orthogonalLoop=1;jettySize=auto;html=1;exitX=0.5;exitY=1;exitDx=0;exitDy=0;entryX=0.45;entryY=0.017;entryDx=0;entryDy=0;entryPerimeter=0;" edge="1" parent="1" source="_7RisfW2_EcUqP_K5y7g-10" target="_7RisfW2_EcUqP_K5y7g-11">
          <mxGeometry relative="1" as="geometry" />
        </mxCell>
        <mxCell id="_7RisfW2_EcUqP_K5y7g-10" value="No pokemon available" style="rounded=0;whiteSpace=wrap;html=1;" vertex="1" parent="1">
          <mxGeometry x="420" y="370" width="120" height="60" as="geometry" />
        </mxCell>
        <mxCell id="_7RisfW2_EcUqP_K5y7g-11" value="Cancel Battle" style="rounded=0;whiteSpace=wrap;html=1;" vertex="1" parent="1">
          <mxGeometry x="426" y="470" width="120" height="60" as="geometry" />
        </mxCell>
        <mxCell id="_7RisfW2_EcUqP_K5y7g-12" style="edgeStyle=orthogonalEdgeStyle;rounded=0;orthogonalLoop=1;jettySize=auto;html=1;exitX=0.5;exitY=1;exitDx=0;exitDy=0;entryX=0.5;entryY=0;entryDx=0;entryDy=0;" edge="1" parent="1" source="_7RisfW2_EcUqP_K5y7g-13" target="_7RisfW2_EcUqP_K5y7g-17">
          <mxGeometry relative="1" as="geometry" />
        </mxCell>
        <mxCell id="_7RisfW2_EcUqP_K5y7g-13" value="Fill oponent team with random eligible pokemon" style="rounded=0;whiteSpace=wrap;html=1;" vertex="1" parent="1">
          <mxGeometry x="230" y="670" width="120" height="60" as="geometry" />
        </mxCell>
        <mxCell id="_7RisfW2_EcUqP_K5y7g-14" style="edgeStyle=orthogonalEdgeStyle;rounded=0;orthogonalLoop=1;jettySize=auto;html=1;exitX=0.5;exitY=1;exitDx=0;exitDy=0;entryX=0.5;entryY=0;entryDx=0;entryDy=0;" edge="1" parent="1" source="_7RisfW2_EcUqP_K5y7g-15" target="_7RisfW2_EcUqP_K5y7g-13">
          <mxGeometry relative="1" as="geometry" />
        </mxCell>
        <mxCell id="_7RisfW2_EcUqP_K5y7g-15" value="Determine pokemon eligibility" style="rounded=0;whiteSpace=wrap;html=1;" vertex="1" parent="1">
          <mxGeometry x="230" y="570" width="120" height="60" as="geometry" />
        </mxCell>
        <mxCell id="_7RisfW2_EcUqP_K5y7g-16" style="edgeStyle=orthogonalEdgeStyle;rounded=0;orthogonalLoop=1;jettySize=auto;html=1;exitX=0.5;exitY=1;exitDx=0;exitDy=0;entryX=0.5;entryY=0;entryDx=0;entryDy=0;" edge="1" parent="1" source="_7RisfW2_EcUqP_K5y7g-17" target="_7RisfW2_EcUqP_K5y7g-3">
          <mxGeometry relative="1" as="geometry" />
        </mxCell>
        <mxCell id="_7RisfW2_EcUqP_K5y7g-17" value="Select level of pokemon within range of +/- 2" style="rounded=0;whiteSpace=wrap;html=1;" vertex="1" parent="1">
          <mxGeometry x="230" y="770" width="120" height="60" as="geometry" />
        </mxCell>
        <mxCell id="_7RisfW2_EcUqP_K5y7g-18" style="edgeStyle=orthogonalEdgeStyle;rounded=0;orthogonalLoop=1;jettySize=auto;html=1;exitX=0;exitY=0.5;exitDx=0;exitDy=0;entryX=-0.008;entryY=0.617;entryDx=0;entryDy=0;entryPerimeter=0;" edge="1" parent="1" source="_7RisfW2_EcUqP_K5y7g-22" target="_7RisfW2_EcUqP_K5y7g-15">
          <mxGeometry relative="1" as="geometry">
            <Array as="points">
              <mxPoint x="170" y="490" />
              <mxPoint x="170" y="607" />
            </Array>
          </mxGeometry>
        </mxCell>
        <mxCell id="_7RisfW2_EcUqP_K5y7g-19" value="If 0 then 1" style="edgeLabel;html=1;align=center;verticalAlign=middle;resizable=0;points=[];" vertex="1" connectable="0" parent="_7RisfW2_EcUqP_K5y7g-18">
          <mxGeometry x="0.1151" y="1" relative="1" as="geometry">
            <mxPoint y="-22" as="offset" />
          </mxGeometry>
        </mxCell>
        <mxCell id="_7RisfW2_EcUqP_K5y7g-20" style="edgeStyle=orthogonalEdgeStyle;rounded=0;orthogonalLoop=1;jettySize=auto;html=1;exitX=0.5;exitY=1;exitDx=0;exitDy=0;entryX=0.5;entryY=0;entryDx=0;entryDy=0;" edge="1" parent="1" source="_7RisfW2_EcUqP_K5y7g-22" target="_7RisfW2_EcUqP_K5y7g-15">
          <mxGeometry relative="1" as="geometry" />
        </mxCell>
        <mxCell id="_7RisfW2_EcUqP_K5y7g-21" value="&amp;gt; 0" style="edgeLabel;html=1;align=center;verticalAlign=middle;resizable=0;points=[];" vertex="1" connectable="0" parent="_7RisfW2_EcUqP_K5y7g-20">
          <mxGeometry x="-0.17" relative="1" as="geometry">
            <mxPoint as="offset" />
          </mxGeometry>
        </mxCell>
        <mxCell id="_7RisfW2_EcUqP_K5y7g-22" value="Determine opponent team size (+/- 1 of player size)" style="rounded=0;whiteSpace=wrap;html=1;" vertex="1" parent="1">
          <mxGeometry x="230" y="460" width="120" height="60" as="geometry" />
        </mxCell>
        <mxCell id="_7RisfW2_EcUqP_K5y7g-24" value="Start player turn" style="rounded=0;whiteSpace=wrap;html=1;fillColor=#e1d5e7;strokeColor=#9673a6;" vertex="1" parent="1">
          <mxGeometry x="230" y="960" width="120" height="60" as="geometry" />
        </mxCell>
      </root>
    </mxGraphModel>
  </diagram>
  <diagram name="Player Turn" id="GVkyA7I8p7daCF0-j5k8">
    <mxGraphModel dx="3801" dy="1587" grid="1" gridSize="10" guides="1" tooltips="1" connect="1" arrows="1" fold="1" page="1" pageScale="1" pageWidth="850" pageHeight="1100" background="none" math="0" shadow="0">
      <root>
        <mxCell id="0" />
        <mxCell id="1" parent="0" />
        <mxCell id="tmCChO5Cso2QzUKUQRvO-58" style="edgeStyle=orthogonalEdgeStyle;rounded=0;orthogonalLoop=1;jettySize=auto;html=1;exitX=0.5;exitY=1;exitDx=0;exitDy=0;" edge="1" parent="1" source="tmCChO5Cso2QzUKUQRvO-34" target="tmCChO5Cso2QzUKUQRvO-40">
          <mxGeometry relative="1" as="geometry" />
        </mxCell>
        <mxCell id="tmCChO5Cso2QzUKUQRvO-34" value="Attack" style="rounded=0;whiteSpace=wrap;html=1;" vertex="1" parent="1">
          <mxGeometry x="80" y="210" width="120" height="60" as="geometry" />
        </mxCell>
        <mxCell id="tmCChO5Cso2QzUKUQRvO-100" style="edgeStyle=orthogonalEdgeStyle;rounded=0;orthogonalLoop=1;jettySize=auto;html=1;exitX=0.5;exitY=1;exitDx=0;exitDy=0;entryX=0.5;entryY=0;entryDx=0;entryDy=0;" edge="1" parent="1" source="tmCChO5Cso2QzUKUQRvO-35" target="tmCChO5Cso2QzUKUQRvO-88">
          <mxGeometry relative="1" as="geometry" />
        </mxCell>
        <mxCell id="tmCChO5Cso2QzUKUQRvO-35" value="Heal" style="rounded=0;whiteSpace=wrap;html=1;" vertex="1" parent="1">
          <mxGeometry x="250" y="200" width="120" height="60" as="geometry" />
        </mxCell>
        <mxCell id="tmCChO5Cso2QzUKUQRvO-118" style="edgeStyle=orthogonalEdgeStyle;rounded=0;orthogonalLoop=1;jettySize=auto;html=1;exitX=0.5;exitY=1;exitDx=0;exitDy=0;" edge="1" parent="1" source="tmCChO5Cso2QzUKUQRvO-36" target="tmCChO5Cso2QzUKUQRvO-117">
          <mxGeometry relative="1" as="geometry" />
        </mxCell>
        <mxCell id="tmCChO5Cso2QzUKUQRvO-36" value="Defend" style="rounded=0;whiteSpace=wrap;html=1;" vertex="1" parent="1">
          <mxGeometry x="430" y="200" width="120" height="60" as="geometry" />
        </mxCell>
        <mxCell id="tmCChO5Cso2QzUKUQRvO-59" style="edgeStyle=orthogonalEdgeStyle;rounded=0;orthogonalLoop=1;jettySize=auto;html=1;exitX=0.5;exitY=1;exitDx=0;exitDy=0;entryX=0.5;entryY=0;entryDx=0;entryDy=0;" edge="1" parent="1" source="tmCChO5Cso2QzUKUQRvO-40" target="tmCChO5Cso2QzUKUQRvO-41">
          <mxGeometry relative="1" as="geometry" />
        </mxCell>
        <mxCell id="tmCChO5Cso2QzUKUQRvO-40" value="Select random attack from pokemon attack list" style="rounded=0;whiteSpace=wrap;html=1;" vertex="1" parent="1">
          <mxGeometry x="-305" y="280" width="120" height="60" as="geometry" />
        </mxCell>
        <mxCell id="tmCChO5Cso2QzUKUQRvO-43" style="edgeStyle=orthogonalEdgeStyle;rounded=0;orthogonalLoop=1;jettySize=auto;html=1;exitX=0.25;exitY=1;exitDx=0;exitDy=0;" edge="1" parent="1" source="tmCChO5Cso2QzUKUQRvO-41" target="tmCChO5Cso2QzUKUQRvO-42">
          <mxGeometry relative="1" as="geometry" />
        </mxCell>
        <mxCell id="tmCChO5Cso2QzUKUQRvO-44" value="Miss" style="edgeLabel;html=1;align=center;verticalAlign=middle;resizable=0;points=[];" vertex="1" connectable="0" parent="tmCChO5Cso2QzUKUQRvO-43">
          <mxGeometry x="-0.04" y="1" relative="1" as="geometry">
            <mxPoint as="offset" />
          </mxGeometry>
        </mxCell>
        <mxCell id="tmCChO5Cso2QzUKUQRvO-46" style="edgeStyle=orthogonalEdgeStyle;rounded=0;orthogonalLoop=1;jettySize=auto;html=1;exitX=0.75;exitY=1;exitDx=0;exitDy=0;" edge="1" parent="1" source="tmCChO5Cso2QzUKUQRvO-41" target="tmCChO5Cso2QzUKUQRvO-45">
          <mxGeometry relative="1" as="geometry" />
        </mxCell>
        <mxCell id="tmCChO5Cso2QzUKUQRvO-47" value="Hit" style="edgeLabel;html=1;align=center;verticalAlign=middle;resizable=0;points=[];" vertex="1" connectable="0" parent="tmCChO5Cso2QzUKUQRvO-46">
          <mxGeometry x="0.4095" y="3" relative="1" as="geometry">
            <mxPoint as="offset" />
          </mxGeometry>
        </mxCell>
        <mxCell id="tmCChO5Cso2QzUKUQRvO-41" value="Does attack miss&lt;br&gt;10% chance to miss" style="rounded=0;whiteSpace=wrap;html=1;" vertex="1" parent="1">
          <mxGeometry x="-305" y="380" width="120" height="60" as="geometry" />
        </mxCell>
        <mxCell id="tmCChO5Cso2QzUKUQRvO-87" style="edgeStyle=orthogonalEdgeStyle;rounded=0;orthogonalLoop=1;jettySize=auto;html=1;exitX=0.5;exitY=1;exitDx=0;exitDy=0;entryX=0;entryY=0.5;entryDx=0;entryDy=0;" edge="1" parent="1" source="tmCChO5Cso2QzUKUQRvO-42" target="tmCChO5Cso2QzUKUQRvO-66">
          <mxGeometry relative="1" as="geometry">
            <mxPoint x="-1090" y="1470" as="targetPoint" />
            <Array as="points">
              <mxPoint x="-490" y="630" />
              <mxPoint x="-570" y="630" />
              <mxPoint x="-570" y="1440" />
              <mxPoint x="-60" y="1440" />
            </Array>
          </mxGeometry>
        </mxCell>
        <mxCell id="tmCChO5Cso2QzUKUQRvO-42" value="No damage" style="rounded=0;whiteSpace=wrap;html=1;" vertex="1" parent="1">
          <mxGeometry x="-550" y="490" width="120" height="60" as="geometry" />
        </mxCell>
        <mxCell id="tmCChO5Cso2QzUKUQRvO-51" style="edgeStyle=orthogonalEdgeStyle;rounded=0;orthogonalLoop=1;jettySize=auto;html=1;exitX=0.25;exitY=1;exitDx=0;exitDy=0;entryX=0.442;entryY=0.033;entryDx=0;entryDy=0;entryPerimeter=0;" edge="1" parent="1" source="tmCChO5Cso2QzUKUQRvO-45" target="tmCChO5Cso2QzUKUQRvO-48">
          <mxGeometry relative="1" as="geometry" />
        </mxCell>
        <mxCell id="tmCChO5Cso2QzUKUQRvO-52" value="weak" style="edgeLabel;html=1;align=center;verticalAlign=middle;resizable=0;points=[];" vertex="1" connectable="0" parent="tmCChO5Cso2QzUKUQRvO-51">
          <mxGeometry x="0.3494" y="-3" relative="1" as="geometry">
            <mxPoint as="offset" />
          </mxGeometry>
        </mxCell>
        <mxCell id="tmCChO5Cso2QzUKUQRvO-53" value="Normal" style="edgeStyle=orthogonalEdgeStyle;rounded=0;orthogonalLoop=1;jettySize=auto;html=1;exitX=0.5;exitY=1;exitDx=0;exitDy=0;entryX=0.5;entryY=0;entryDx=0;entryDy=0;" edge="1" parent="1" source="tmCChO5Cso2QzUKUQRvO-45" target="tmCChO5Cso2QzUKUQRvO-49">
          <mxGeometry relative="1" as="geometry" />
        </mxCell>
        <mxCell id="tmCChO5Cso2QzUKUQRvO-54" style="edgeStyle=orthogonalEdgeStyle;rounded=0;orthogonalLoop=1;jettySize=auto;html=1;exitX=0.75;exitY=1;exitDx=0;exitDy=0;entryX=0.5;entryY=0;entryDx=0;entryDy=0;" edge="1" parent="1" source="tmCChO5Cso2QzUKUQRvO-45" target="tmCChO5Cso2QzUKUQRvO-50">
          <mxGeometry relative="1" as="geometry" />
        </mxCell>
        <mxCell id="tmCChO5Cso2QzUKUQRvO-55" value="Strong" style="edgeLabel;html=1;align=center;verticalAlign=middle;resizable=0;points=[];" vertex="1" connectable="0" parent="tmCChO5Cso2QzUKUQRvO-54">
          <mxGeometry x="-0.1619" y="4" relative="1" as="geometry">
            <mxPoint as="offset" />
          </mxGeometry>
        </mxCell>
        <mxCell id="tmCChO5Cso2QzUKUQRvO-45" value="Is opponent weak or strong to attack type" style="rounded=0;whiteSpace=wrap;html=1;" vertex="1" parent="1">
          <mxGeometry x="-220" y="490" width="120" height="60" as="geometry" />
        </mxCell>
        <mxCell id="tmCChO5Cso2QzUKUQRvO-60" style="edgeStyle=orthogonalEdgeStyle;rounded=0;orthogonalLoop=1;jettySize=auto;html=1;exitX=0.5;exitY=1;exitDx=0;exitDy=0;entryX=0.25;entryY=0;entryDx=0;entryDy=0;" edge="1" parent="1" source="tmCChO5Cso2QzUKUQRvO-48" target="tmCChO5Cso2QzUKUQRvO-57">
          <mxGeometry relative="1" as="geometry" />
        </mxCell>
        <mxCell id="tmCChO5Cso2QzUKUQRvO-48" value="2x" style="rounded=0;whiteSpace=wrap;html=1;" vertex="1" parent="1">
          <mxGeometry x="-390" y="610" width="120" height="60" as="geometry" />
        </mxCell>
        <mxCell id="tmCChO5Cso2QzUKUQRvO-61" style="edgeStyle=orthogonalEdgeStyle;rounded=0;orthogonalLoop=1;jettySize=auto;html=1;exitX=0.5;exitY=1;exitDx=0;exitDy=0;entryX=0.5;entryY=0;entryDx=0;entryDy=0;" edge="1" parent="1" source="tmCChO5Cso2QzUKUQRvO-49" target="tmCChO5Cso2QzUKUQRvO-57">
          <mxGeometry relative="1" as="geometry" />
        </mxCell>
        <mxCell id="tmCChO5Cso2QzUKUQRvO-49" value="1x" style="rounded=0;whiteSpace=wrap;html=1;" vertex="1" parent="1">
          <mxGeometry x="-220" y="610" width="120" height="60" as="geometry" />
        </mxCell>
        <mxCell id="tmCChO5Cso2QzUKUQRvO-62" style="edgeStyle=orthogonalEdgeStyle;rounded=0;orthogonalLoop=1;jettySize=auto;html=1;exitX=0.5;exitY=1;exitDx=0;exitDy=0;entryX=0.75;entryY=0;entryDx=0;entryDy=0;" edge="1" parent="1" source="tmCChO5Cso2QzUKUQRvO-50" target="tmCChO5Cso2QzUKUQRvO-57">
          <mxGeometry relative="1" as="geometry" />
        </mxCell>
        <mxCell id="tmCChO5Cso2QzUKUQRvO-50" value="1/2" style="rounded=0;whiteSpace=wrap;html=1;" vertex="1" parent="1">
          <mxGeometry x="-40" y="610" width="120" height="60" as="geometry" />
        </mxCell>
        <mxCell id="tmCChO5Cso2QzUKUQRvO-72" style="edgeStyle=orthogonalEdgeStyle;rounded=0;orthogonalLoop=1;jettySize=auto;html=1;exitX=0.5;exitY=1;exitDx=0;exitDy=0;" edge="1" parent="1" source="tmCChO5Cso2QzUKUQRvO-57" target="tmCChO5Cso2QzUKUQRvO-63">
          <mxGeometry relative="1" as="geometry" />
        </mxCell>
        <mxCell id="tmCChO5Cso2QzUKUQRvO-57" value="calculate opponent health" style="rounded=0;whiteSpace=wrap;html=1;" vertex="1" parent="1">
          <mxGeometry x="-220" y="740" width="120" height="60" as="geometry" />
        </mxCell>
        <mxCell id="tmCChO5Cso2QzUKUQRvO-73" style="edgeStyle=orthogonalEdgeStyle;rounded=0;orthogonalLoop=1;jettySize=auto;html=1;exitX=0.25;exitY=1;exitDx=0;exitDy=0;entryX=0.5;entryY=0;entryDx=0;entryDy=0;" edge="1" parent="1" source="tmCChO5Cso2QzUKUQRvO-63" target="tmCChO5Cso2QzUKUQRvO-64">
          <mxGeometry relative="1" as="geometry" />
        </mxCell>
        <mxCell id="tmCChO5Cso2QzUKUQRvO-85" value="yes" style="edgeLabel;html=1;align=center;verticalAlign=middle;resizable=0;points=[];" vertex="1" connectable="0" parent="tmCChO5Cso2QzUKUQRvO-73">
          <mxGeometry x="-0.181" y="-1" relative="1" as="geometry">
            <mxPoint as="offset" />
          </mxGeometry>
        </mxCell>
        <mxCell id="tmCChO5Cso2QzUKUQRvO-81" style="edgeStyle=orthogonalEdgeStyle;rounded=0;orthogonalLoop=1;jettySize=auto;html=1;exitX=0.75;exitY=1;exitDx=0;exitDy=0;entryX=0.5;entryY=0;entryDx=0;entryDy=0;" edge="1" parent="1" source="tmCChO5Cso2QzUKUQRvO-63" target="tmCChO5Cso2QzUKUQRvO-65">
          <mxGeometry relative="1" as="geometry" />
        </mxCell>
        <mxCell id="tmCChO5Cso2QzUKUQRvO-86" value="no" style="edgeLabel;html=1;align=center;verticalAlign=middle;resizable=0;points=[];" vertex="1" connectable="0" parent="tmCChO5Cso2QzUKUQRvO-81">
          <mxGeometry x="-0.0545" y="-1" relative="1" as="geometry">
            <mxPoint as="offset" />
          </mxGeometry>
        </mxCell>
        <mxCell id="tmCChO5Cso2QzUKUQRvO-63" value="Is opponent pokemon knocked out" style="rounded=0;whiteSpace=wrap;html=1;" vertex="1" parent="1">
          <mxGeometry x="-220" y="850" width="120" height="60" as="geometry" />
        </mxCell>
        <mxCell id="tmCChO5Cso2QzUKUQRvO-74" style="edgeStyle=orthogonalEdgeStyle;rounded=0;orthogonalLoop=1;jettySize=auto;html=1;exitX=0.5;exitY=1;exitDx=0;exitDy=0;" edge="1" parent="1" source="tmCChO5Cso2QzUKUQRvO-64" target="tmCChO5Cso2QzUKUQRvO-69">
          <mxGeometry relative="1" as="geometry" />
        </mxCell>
        <mxCell id="tmCChO5Cso2QzUKUQRvO-83" value="no" style="edgeLabel;html=1;align=center;verticalAlign=middle;resizable=0;points=[];" vertex="1" connectable="0" parent="tmCChO5Cso2QzUKUQRvO-74">
          <mxGeometry x="0.1077" relative="1" as="geometry">
            <mxPoint as="offset" />
          </mxGeometry>
        </mxCell>
        <mxCell id="tmCChO5Cso2QzUKUQRvO-75" style="edgeStyle=orthogonalEdgeStyle;rounded=0;orthogonalLoop=1;jettySize=auto;html=1;exitX=0.25;exitY=1;exitDx=0;exitDy=0;" edge="1" parent="1" source="tmCChO5Cso2QzUKUQRvO-64" target="tmCChO5Cso2QzUKUQRvO-68">
          <mxGeometry relative="1" as="geometry" />
        </mxCell>
        <mxCell id="tmCChO5Cso2QzUKUQRvO-82" value="yes" style="edgeLabel;html=1;align=center;verticalAlign=middle;resizable=0;points=[];" vertex="1" connectable="0" parent="tmCChO5Cso2QzUKUQRvO-75">
          <mxGeometry x="0.2686" y="4" relative="1" as="geometry">
            <mxPoint as="offset" />
          </mxGeometry>
        </mxCell>
        <mxCell id="tmCChO5Cso2QzUKUQRvO-64" value="Check for available pokemon" style="rounded=0;whiteSpace=wrap;html=1;" vertex="1" parent="1">
          <mxGeometry x="-305" y="960" width="120" height="60" as="geometry" />
        </mxCell>
        <mxCell id="tmCChO5Cso2QzUKUQRvO-80" style="edgeStyle=orthogonalEdgeStyle;rounded=0;orthogonalLoop=1;jettySize=auto;html=1;exitX=0.5;exitY=1;exitDx=0;exitDy=0;entryX=0.75;entryY=0;entryDx=0;entryDy=0;" edge="1" parent="1" source="tmCChO5Cso2QzUKUQRvO-65" target="tmCChO5Cso2QzUKUQRvO-66">
          <mxGeometry relative="1" as="geometry" />
        </mxCell>
        <mxCell id="tmCChO5Cso2QzUKUQRvO-65" value="Announce oppoenent health" style="rounded=0;whiteSpace=wrap;html=1;" vertex="1" parent="1">
          <mxGeometry x="-130" y="960" width="120" height="60" as="geometry" />
        </mxCell>
        <mxCell id="tmCChO5Cso2QzUKUQRvO-66" value="Start opponent turn" style="rounded=0;whiteSpace=wrap;html=1;fillColor=#dae8fc;strokeColor=#6c8ebf;" vertex="1" parent="1">
          <mxGeometry x="-60" y="1370" width="280" height="130" as="geometry" />
        </mxCell>
        <mxCell id="tmCChO5Cso2QzUKUQRvO-76" style="edgeStyle=orthogonalEdgeStyle;rounded=0;orthogonalLoop=1;jettySize=auto;html=1;exitX=0.5;exitY=1;exitDx=0;exitDy=0;" edge="1" parent="1" source="tmCChO5Cso2QzUKUQRvO-68" target="tmCChO5Cso2QzUKUQRvO-70">
          <mxGeometry relative="1" as="geometry" />
        </mxCell>
        <mxCell id="tmCChO5Cso2QzUKUQRvO-68" value="Select next pokemon" style="rounded=0;whiteSpace=wrap;html=1;" vertex="1" parent="1">
          <mxGeometry x="-460" y="1070" width="120" height="60" as="geometry" />
        </mxCell>
        <mxCell id="tmCChO5Cso2QzUKUQRvO-69" value="End battle, player wins" style="rounded=0;whiteSpace=wrap;html=1;fillColor=#d5e8d4;strokeColor=#82b366;" vertex="1" parent="1">
          <mxGeometry x="-290" y="1070" width="120" height="60" as="geometry" />
        </mxCell>
        <mxCell id="tmCChO5Cso2QzUKUQRvO-77" style="edgeStyle=orthogonalEdgeStyle;rounded=0;orthogonalLoop=1;jettySize=auto;html=1;exitX=0.75;exitY=1;exitDx=0;exitDy=0;" edge="1" parent="1" source="tmCChO5Cso2QzUKUQRvO-70" target="tmCChO5Cso2QzUKUQRvO-66">
          <mxGeometry relative="1" as="geometry" />
        </mxCell>
        <mxCell id="tmCChO5Cso2QzUKUQRvO-78" style="edgeStyle=orthogonalEdgeStyle;rounded=0;orthogonalLoop=1;jettySize=auto;html=1;exitX=0.25;exitY=1;exitDx=0;exitDy=0;" edge="1" parent="1" source="tmCChO5Cso2QzUKUQRvO-70" target="tmCChO5Cso2QzUKUQRvO-71">
          <mxGeometry relative="1" as="geometry" />
        </mxCell>
        <mxCell id="tmCChO5Cso2QzUKUQRvO-84" value="yes" style="edgeLabel;html=1;align=center;verticalAlign=middle;resizable=0;points=[];" vertex="1" connectable="0" parent="tmCChO5Cso2QzUKUQRvO-78">
          <mxGeometry x="0.1333" y="1" relative="1" as="geometry">
            <mxPoint as="offset" />
          </mxGeometry>
        </mxCell>
        <mxCell id="tmCChO5Cso2QzUKUQRvO-70" value="Does player want to switch as well?" style="rounded=0;whiteSpace=wrap;html=1;" vertex="1" parent="1">
          <mxGeometry x="-460" y="1180" width="120" height="60" as="geometry" />
        </mxCell>
        <mxCell id="tmCChO5Cso2QzUKUQRvO-79" style="edgeStyle=orthogonalEdgeStyle;rounded=0;orthogonalLoop=1;jettySize=auto;html=1;exitX=0.5;exitY=1;exitDx=0;exitDy=0;entryX=0.25;entryY=0;entryDx=0;entryDy=0;" edge="1" parent="1" source="tmCChO5Cso2QzUKUQRvO-71" target="tmCChO5Cso2QzUKUQRvO-66">
          <mxGeometry relative="1" as="geometry" />
        </mxCell>
        <mxCell id="tmCChO5Cso2QzUKUQRvO-71" value="select new player pokemon" style="rounded=0;whiteSpace=wrap;html=1;" vertex="1" parent="1">
          <mxGeometry x="-530" y="1290" width="120" height="60" as="geometry" />
        </mxCell>
        <mxCell id="tmCChO5Cso2QzUKUQRvO-105" style="edgeStyle=orthogonalEdgeStyle;rounded=0;orthogonalLoop=1;jettySize=auto;html=1;exitX=0.25;exitY=1;exitDx=0;exitDy=0;" edge="1" parent="1" source="tmCChO5Cso2QzUKUQRvO-88" target="tmCChO5Cso2QzUKUQRvO-89">
          <mxGeometry relative="1" as="geometry">
            <Array as="points">
              <mxPoint x="280" y="410" />
              <mxPoint x="210" y="410" />
            </Array>
          </mxGeometry>
        </mxCell>
        <mxCell id="tmCChO5Cso2QzUKUQRvO-106" value="Yes" style="edgeLabel;html=1;align=center;verticalAlign=middle;resizable=0;points=[];" vertex="1" connectable="0" parent="tmCChO5Cso2QzUKUQRvO-105">
          <mxGeometry x="0.3286" relative="1" as="geometry">
            <mxPoint as="offset" />
          </mxGeometry>
        </mxCell>
        <mxCell id="tmCChO5Cso2QzUKUQRvO-107" style="edgeStyle=orthogonalEdgeStyle;rounded=0;orthogonalLoop=1;jettySize=auto;html=1;exitX=0.75;exitY=1;exitDx=0;exitDy=0;entryX=0.75;entryY=1;entryDx=0;entryDy=0;" edge="1" parent="1" source="tmCChO5Cso2QzUKUQRvO-88" target="tmCChO5Cso2QzUKUQRvO-95">
          <mxGeometry relative="1" as="geometry">
            <Array as="points">
              <mxPoint x="340" y="380" />
              <mxPoint x="390" y="380" />
              <mxPoint x="390" y="190" />
              <mxPoint x="340" y="190" />
            </Array>
          </mxGeometry>
        </mxCell>
        <mxCell id="tmCChO5Cso2QzUKUQRvO-108" value="No" style="edgeLabel;html=1;align=center;verticalAlign=middle;resizable=0;points=[];" vertex="1" connectable="0" parent="tmCChO5Cso2QzUKUQRvO-107">
          <mxGeometry x="-0.2909" y="-4" relative="1" as="geometry">
            <mxPoint as="offset" />
          </mxGeometry>
        </mxCell>
        <mxCell id="tmCChO5Cso2QzUKUQRvO-88" value="Does player have potions" style="rounded=0;whiteSpace=wrap;html=1;" vertex="1" parent="1">
          <mxGeometry x="250" y="300" width="120" height="60" as="geometry" />
        </mxCell>
        <mxCell id="tmCChO5Cso2QzUKUQRvO-102" style="edgeStyle=orthogonalEdgeStyle;rounded=0;orthogonalLoop=1;jettySize=auto;html=1;exitX=0.25;exitY=1;exitDx=0;exitDy=0;entryX=0.367;entryY=1.017;entryDx=0;entryDy=0;entryPerimeter=0;" edge="1" parent="1" source="tmCChO5Cso2QzUKUQRvO-89" target="tmCChO5Cso2QzUKUQRvO-95">
          <mxGeometry relative="1" as="geometry">
            <Array as="points">
              <mxPoint x="180" y="510" />
              <mxPoint x="130" y="510" />
              <mxPoint x="130" y="390" />
              <mxPoint x="210" y="390" />
              <mxPoint x="210" y="190" />
              <mxPoint x="294" y="190" />
            </Array>
          </mxGeometry>
        </mxCell>
        <mxCell id="tmCChO5Cso2QzUKUQRvO-104" value="Yes" style="edgeLabel;html=1;align=center;verticalAlign=middle;resizable=0;points=[];" vertex="1" connectable="0" parent="tmCChO5Cso2QzUKUQRvO-102">
          <mxGeometry x="-0.1448" y="1" relative="1" as="geometry">
            <mxPoint as="offset" />
          </mxGeometry>
        </mxCell>
        <mxCell id="tmCChO5Cso2QzUKUQRvO-110" style="edgeStyle=orthogonalEdgeStyle;rounded=0;orthogonalLoop=1;jettySize=auto;html=1;exitX=0.5;exitY=1;exitDx=0;exitDy=0;entryX=0.5;entryY=0;entryDx=0;entryDy=0;" edge="1" parent="1" source="tmCChO5Cso2QzUKUQRvO-89" target="tmCChO5Cso2QzUKUQRvO-109">
          <mxGeometry relative="1" as="geometry" />
        </mxCell>
        <mxCell id="tmCChO5Cso2QzUKUQRvO-116" value="no" style="edgeLabel;html=1;align=center;verticalAlign=middle;resizable=0;points=[];" vertex="1" connectable="0" parent="tmCChO5Cso2QzUKUQRvO-110">
          <mxGeometry x="-0.04" y="2" relative="1" as="geometry">
            <mxPoint as="offset" />
          </mxGeometry>
        </mxCell>
        <mxCell id="tmCChO5Cso2QzUKUQRvO-89" value="Is pokemon at full health" style="rounded=0;whiteSpace=wrap;html=1;" vertex="1" parent="1">
          <mxGeometry x="150" y="430" width="120" height="60" as="geometry" />
        </mxCell>
        <mxCell id="tmCChO5Cso2QzUKUQRvO-97" style="edgeStyle=orthogonalEdgeStyle;rounded=0;orthogonalLoop=1;jettySize=auto;html=1;exitX=0.5;exitY=1;exitDx=0;exitDy=0;entryX=0.5;entryY=0;entryDx=0;entryDy=0;" edge="1" parent="1" source="tmCChO5Cso2QzUKUQRvO-95" target="tmCChO5Cso2QzUKUQRvO-35">
          <mxGeometry relative="1" as="geometry" />
        </mxCell>
        <mxCell id="tmCChO5Cso2QzUKUQRvO-99" style="edgeStyle=orthogonalEdgeStyle;rounded=0;orthogonalLoop=1;jettySize=auto;html=1;exitX=1;exitY=0.5;exitDx=0;exitDy=0;" edge="1" parent="1" source="tmCChO5Cso2QzUKUQRvO-95" target="tmCChO5Cso2QzUKUQRvO-36">
          <mxGeometry relative="1" as="geometry" />
        </mxCell>
        <mxCell id="tmCChO5Cso2QzUKUQRvO-103" style="edgeStyle=orthogonalEdgeStyle;rounded=0;orthogonalLoop=1;jettySize=auto;html=1;exitX=0;exitY=0.5;exitDx=0;exitDy=0;" edge="1" parent="1" source="tmCChO5Cso2QzUKUQRvO-95" target="tmCChO5Cso2QzUKUQRvO-34">
          <mxGeometry relative="1" as="geometry" />
        </mxCell>
        <mxCell id="tmCChO5Cso2QzUKUQRvO-95" value="Select option" style="rounded=0;whiteSpace=wrap;html=1;" vertex="1" parent="1">
          <mxGeometry x="250" y="110" width="120" height="60" as="geometry" />
        </mxCell>
        <mxCell id="tmCChO5Cso2QzUKUQRvO-112" style="edgeStyle=orthogonalEdgeStyle;rounded=0;orthogonalLoop=1;jettySize=auto;html=1;exitX=0.5;exitY=1;exitDx=0;exitDy=0;" edge="1" parent="1" source="tmCChO5Cso2QzUKUQRvO-109" target="tmCChO5Cso2QzUKUQRvO-111">
          <mxGeometry relative="1" as="geometry" />
        </mxCell>
        <mxCell id="tmCChO5Cso2QzUKUQRvO-109" value="Heal 25% of health" style="rounded=0;whiteSpace=wrap;html=1;" vertex="1" parent="1">
          <mxGeometry x="150" y="540" width="120" height="60" as="geometry" />
        </mxCell>
        <mxCell id="tmCChO5Cso2QzUKUQRvO-114" style="edgeStyle=orthogonalEdgeStyle;rounded=0;orthogonalLoop=1;jettySize=auto;html=1;exitX=0.25;exitY=1;exitDx=0;exitDy=0;entryX=0.893;entryY=0;entryDx=0;entryDy=0;entryPerimeter=0;" edge="1" parent="1" source="tmCChO5Cso2QzUKUQRvO-111" target="tmCChO5Cso2QzUKUQRvO-66">
          <mxGeometry relative="1" as="geometry" />
        </mxCell>
        <mxCell id="tmCChO5Cso2QzUKUQRvO-111" value="potions - 1" style="rounded=0;whiteSpace=wrap;html=1;" vertex="1" parent="1">
          <mxGeometry x="150" y="640" width="120" height="60" as="geometry" />
        </mxCell>
        <mxCell id="tmCChO5Cso2QzUKUQRvO-119" style="edgeStyle=orthogonalEdgeStyle;rounded=0;orthogonalLoop=1;jettySize=auto;html=1;exitX=0.5;exitY=1;exitDx=0;exitDy=0;entryX=1;entryY=0.5;entryDx=0;entryDy=0;" edge="1" parent="1" source="tmCChO5Cso2QzUKUQRvO-117" target="tmCChO5Cso2QzUKUQRvO-66">
          <mxGeometry relative="1" as="geometry" />
        </mxCell>
        <mxCell id="tmCChO5Cso2QzUKUQRvO-117" value="set defend flag" style="rounded=0;whiteSpace=wrap;html=1;" vertex="1" parent="1">
          <mxGeometry x="470" y="310" width="120" height="60" as="geometry" />
        </mxCell>
        <mxCell id="tmCChO5Cso2QzUKUQRvO-123" style="edgeStyle=orthogonalEdgeStyle;rounded=0;orthogonalLoop=1;jettySize=auto;html=1;exitX=0.5;exitY=1;exitDx=0;exitDy=0;entryX=0.5;entryY=0;entryDx=0;entryDy=0;" edge="1" parent="1" source="tmCChO5Cso2QzUKUQRvO-121" target="tmCChO5Cso2QzUKUQRvO-95">
          <mxGeometry relative="1" as="geometry" />
        </mxCell>
        <mxCell id="tmCChO5Cso2QzUKUQRvO-121" value="Clear defend flag" style="rounded=0;whiteSpace=wrap;html=1;fillColor=#e1d5e7;strokeColor=#9673a6;" vertex="1" parent="1">
          <mxGeometry x="250" y="20" width="120" height="60" as="geometry" />
        </mxCell>
      </root>
    </mxGraphModel>
  </diagram>
  <diagram id="h5HvTg63OCqVAjAX7qtR" name="Opponent Turn">
    <mxGraphModel dx="2916" dy="1111" grid="1" gridSize="10" guides="1" tooltips="1" connect="1" arrows="1" fold="1" page="1" pageScale="1" pageWidth="850" pageHeight="1100" math="0" shadow="0">
      <root>
        <mxCell id="0" />
        <mxCell id="1" parent="0" />
        <mxCell id="cpTdH8z6MFsJDL-kwgdY-4" style="edgeStyle=orthogonalEdgeStyle;rounded=0;orthogonalLoop=1;jettySize=auto;html=1;exitX=0.25;exitY=1;exitDx=0;exitDy=0;entryX=0.5;entryY=0;entryDx=0;entryDy=0;" edge="1" parent="1" source="cpTdH8z6MFsJDL-kwgdY-1" target="cpTdH8z6MFsJDL-kwgdY-2">
          <mxGeometry relative="1" as="geometry" />
        </mxCell>
        <mxCell id="cpTdH8z6MFsJDL-kwgdY-5" style="edgeStyle=orthogonalEdgeStyle;rounded=0;orthogonalLoop=1;jettySize=auto;html=1;exitX=0.75;exitY=1;exitDx=0;exitDy=0;" edge="1" parent="1" source="cpTdH8z6MFsJDL-kwgdY-1" target="cpTdH8z6MFsJDL-kwgdY-3">
          <mxGeometry relative="1" as="geometry" />
        </mxCell>
        <mxCell id="cpTdH8z6MFsJDL-kwgdY-1" value="Select Combat Option&lt;br&gt;75% Attack&lt;br&gt;25%&amp;nbsp; Heal" style="rounded=0;whiteSpace=wrap;html=1;fillColor=#dae8fc;strokeColor=#6c8ebf;" vertex="1" parent="1">
          <mxGeometry x="430" y="40" width="120" height="60" as="geometry" />
        </mxCell>
        <mxCell id="cpTdH8z6MFsJDL-kwgdY-7" style="edgeStyle=orthogonalEdgeStyle;rounded=0;orthogonalLoop=1;jettySize=auto;html=1;exitX=0.25;exitY=1;exitDx=0;exitDy=0;" edge="1" parent="1" source="cpTdH8z6MFsJDL-kwgdY-2" target="cpTdH8z6MFsJDL-kwgdY-6">
          <mxGeometry relative="1" as="geometry" />
        </mxCell>
        <mxCell id="BlKyeiBdJVCAVK_1hjcW-2" style="edgeStyle=orthogonalEdgeStyle;rounded=0;orthogonalLoop=1;jettySize=auto;html=1;exitX=0.75;exitY=1;exitDx=0;exitDy=0;" edge="1" parent="1" source="cpTdH8z6MFsJDL-kwgdY-2" target="BlKyeiBdJVCAVK_1hjcW-1">
          <mxGeometry relative="1" as="geometry" />
        </mxCell>
        <mxCell id="cpTdH8z6MFsJDL-kwgdY-2" value="Attack&lt;br&gt;10% Chance Of Missing" style="rounded=0;whiteSpace=wrap;html=1;" vertex="1" parent="1">
          <mxGeometry x="60" y="140" width="120" height="60" as="geometry" />
        </mxCell>
        <mxCell id="tYvMaA84Hs-XsygMNqZ6-27" style="edgeStyle=orthogonalEdgeStyle;rounded=0;orthogonalLoop=1;jettySize=auto;html=1;exitX=0.5;exitY=1;exitDx=0;exitDy=0;entryX=0.5;entryY=0;entryDx=0;entryDy=0;" edge="1" parent="1" source="cpTdH8z6MFsJDL-kwgdY-3" target="tYvMaA84Hs-XsygMNqZ6-26">
          <mxGeometry relative="1" as="geometry" />
        </mxCell>
        <mxCell id="cpTdH8z6MFsJDL-kwgdY-3" value="Heal" style="rounded=0;whiteSpace=wrap;html=1;" vertex="1" parent="1">
          <mxGeometry x="550" y="140" width="120" height="60" as="geometry" />
        </mxCell>
        <mxCell id="cpTdH8z6MFsJDL-kwgdY-9" style="edgeStyle=orthogonalEdgeStyle;rounded=0;orthogonalLoop=1;jettySize=auto;html=1;exitX=0.5;exitY=1;exitDx=0;exitDy=0;entryX=0.5;entryY=0;entryDx=0;entryDy=0;" edge="1" parent="1" source="cpTdH8z6MFsJDL-kwgdY-6" target="cpTdH8z6MFsJDL-kwgdY-8">
          <mxGeometry relative="1" as="geometry" />
        </mxCell>
        <mxCell id="cpTdH8z6MFsJDL-kwgdY-6" value="Miss" style="rounded=0;whiteSpace=wrap;html=1;" vertex="1" parent="1">
          <mxGeometry x="-60" y="240" width="120" height="60" as="geometry" />
        </mxCell>
        <mxCell id="cpTdH8z6MFsJDL-kwgdY-8" value="Player Turn" style="rounded=0;whiteSpace=wrap;html=1;fillColor=#e1d5e7;strokeColor=#9673a6;" vertex="1" parent="1">
          <mxGeometry x="-60" y="320" width="120" height="60" as="geometry" />
        </mxCell>
        <mxCell id="tYvMaA84Hs-XsygMNqZ6-5" style="edgeStyle=orthogonalEdgeStyle;rounded=0;orthogonalLoop=1;jettySize=auto;html=1;exitX=0.5;exitY=1;exitDx=0;exitDy=0;entryX=0.5;entryY=0;entryDx=0;entryDy=0;" edge="1" parent="1" source="BlKyeiBdJVCAVK_1hjcW-1" target="qsWJ10ocmz1hNp2WFp00-1">
          <mxGeometry relative="1" as="geometry" />
        </mxCell>
        <mxCell id="BlKyeiBdJVCAVK_1hjcW-1" value="Hit" style="rounded=0;whiteSpace=wrap;html=1;" vertex="1" parent="1">
          <mxGeometry x="180" y="240" width="120" height="60" as="geometry" />
        </mxCell>
        <mxCell id="qsWJ10ocmz1hNp2WFp00-6" style="edgeStyle=orthogonalEdgeStyle;rounded=0;orthogonalLoop=1;jettySize=auto;html=1;exitX=0.25;exitY=1;exitDx=0;exitDy=0;entryX=0.5;entryY=0;entryDx=0;entryDy=0;" edge="1" parent="1" source="qsWJ10ocmz1hNp2WFp00-1" target="qsWJ10ocmz1hNp2WFp00-4">
          <mxGeometry relative="1" as="geometry">
            <Array as="points">
              <mxPoint x="210" y="390" />
              <mxPoint x="90" y="390" />
            </Array>
          </mxGeometry>
        </mxCell>
        <mxCell id="qsWJ10ocmz1hNp2WFp00-7" style="edgeStyle=orthogonalEdgeStyle;rounded=0;orthogonalLoop=1;jettySize=auto;html=1;exitX=0.5;exitY=1;exitDx=0;exitDy=0;entryX=0.5;entryY=0;entryDx=0;entryDy=0;" edge="1" parent="1" source="qsWJ10ocmz1hNp2WFp00-1" target="qsWJ10ocmz1hNp2WFp00-3">
          <mxGeometry relative="1" as="geometry" />
        </mxCell>
        <mxCell id="qsWJ10ocmz1hNp2WFp00-8" style="edgeStyle=orthogonalEdgeStyle;rounded=0;orthogonalLoop=1;jettySize=auto;html=1;exitX=0.75;exitY=1;exitDx=0;exitDy=0;entryX=0.5;entryY=0;entryDx=0;entryDy=0;" edge="1" parent="1" source="qsWJ10ocmz1hNp2WFp00-1" target="qsWJ10ocmz1hNp2WFp00-2">
          <mxGeometry relative="1" as="geometry">
            <Array as="points">
              <mxPoint x="270" y="390" />
              <mxPoint x="390" y="390" />
            </Array>
          </mxGeometry>
        </mxCell>
        <mxCell id="qsWJ10ocmz1hNp2WFp00-1" value="Is Player Weak Or Stong To Opponents Attack" style="rounded=0;whiteSpace=wrap;html=1;" vertex="1" parent="1">
          <mxGeometry x="180" y="320" width="120" height="60" as="geometry" />
        </mxCell>
        <mxCell id="aQnKudQZVT4BLoH1GzQ3-3" style="edgeStyle=orthogonalEdgeStyle;rounded=0;orthogonalLoop=1;jettySize=auto;html=1;exitX=0.5;exitY=1;exitDx=0;exitDy=0;" edge="1" parent="1" source="qsWJ10ocmz1hNp2WFp00-2" target="Jzbpax514Uf2y2uxvaFY-2">
          <mxGeometry relative="1" as="geometry" />
        </mxCell>
        <mxCell id="qsWJ10ocmz1hNp2WFp00-2" value="Strong" style="rounded=0;whiteSpace=wrap;html=1;" vertex="1" parent="1">
          <mxGeometry x="330" y="410" width="120" height="60" as="geometry" />
        </mxCell>
        <mxCell id="aQnKudQZVT4BLoH1GzQ3-1" style="edgeStyle=orthogonalEdgeStyle;rounded=0;orthogonalLoop=1;jettySize=auto;html=1;exitX=0.5;exitY=1;exitDx=0;exitDy=0;entryX=0.5;entryY=0;entryDx=0;entryDy=0;" edge="1" parent="1" source="qsWJ10ocmz1hNp2WFp00-3" target="Jzbpax514Uf2y2uxvaFY-1">
          <mxGeometry relative="1" as="geometry" />
        </mxCell>
        <mxCell id="qsWJ10ocmz1hNp2WFp00-3" value="Normal" style="rounded=0;whiteSpace=wrap;html=1;" vertex="1" parent="1">
          <mxGeometry x="180" y="410" width="120" height="60" as="geometry" />
        </mxCell>
        <mxCell id="aQnKudQZVT4BLoH1GzQ3-2" style="edgeStyle=orthogonalEdgeStyle;rounded=0;orthogonalLoop=1;jettySize=auto;html=1;exitX=0.5;exitY=1;exitDx=0;exitDy=0;" edge="1" parent="1" source="qsWJ10ocmz1hNp2WFp00-4" target="qsWJ10ocmz1hNp2WFp00-9">
          <mxGeometry relative="1" as="geometry" />
        </mxCell>
        <mxCell id="qsWJ10ocmz1hNp2WFp00-4" value="Weak" style="rounded=0;whiteSpace=wrap;html=1;" vertex="1" parent="1">
          <mxGeometry x="30" y="410" width="120" height="60" as="geometry" />
        </mxCell>
        <mxCell id="PXHrtTBhxYkyW6kzS82V-4" style="edgeStyle=orthogonalEdgeStyle;rounded=0;orthogonalLoop=1;jettySize=auto;html=1;exitX=0.5;exitY=1;exitDx=0;exitDy=0;entryX=0.25;entryY=0;entryDx=0;entryDy=0;" edge="1" parent="1" source="qsWJ10ocmz1hNp2WFp00-9" target="PXHrtTBhxYkyW6kzS82V-1">
          <mxGeometry relative="1" as="geometry">
            <Array as="points">
              <mxPoint x="90" y="560" />
              <mxPoint x="210" y="560" />
            </Array>
          </mxGeometry>
        </mxCell>
        <mxCell id="qsWJ10ocmz1hNp2WFp00-9" value="2X" style="rounded=0;whiteSpace=wrap;html=1;" vertex="1" parent="1">
          <mxGeometry x="30" y="490" width="120" height="60" as="geometry" />
        </mxCell>
        <mxCell id="PXHrtTBhxYkyW6kzS82V-2" style="edgeStyle=orthogonalEdgeStyle;rounded=0;orthogonalLoop=1;jettySize=auto;html=1;exitX=0.5;exitY=1;exitDx=0;exitDy=0;" edge="1" parent="1" source="Jzbpax514Uf2y2uxvaFY-1" target="PXHrtTBhxYkyW6kzS82V-1">
          <mxGeometry relative="1" as="geometry" />
        </mxCell>
        <mxCell id="Jzbpax514Uf2y2uxvaFY-1" value="1X" style="rounded=0;whiteSpace=wrap;html=1;" vertex="1" parent="1">
          <mxGeometry x="180" y="490" width="120" height="60" as="geometry" />
        </mxCell>
        <mxCell id="PXHrtTBhxYkyW6kzS82V-3" style="edgeStyle=orthogonalEdgeStyle;rounded=0;orthogonalLoop=1;jettySize=auto;html=1;exitX=0.5;exitY=1;exitDx=0;exitDy=0;entryX=0.75;entryY=0;entryDx=0;entryDy=0;" edge="1" parent="1" source="Jzbpax514Uf2y2uxvaFY-2" target="PXHrtTBhxYkyW6kzS82V-1">
          <mxGeometry relative="1" as="geometry">
            <Array as="points">
              <mxPoint x="390" y="560" />
              <mxPoint x="270" y="560" />
            </Array>
          </mxGeometry>
        </mxCell>
        <mxCell id="Jzbpax514Uf2y2uxvaFY-2" value="1/2" style="rounded=0;whiteSpace=wrap;html=1;" vertex="1" parent="1">
          <mxGeometry x="330" y="490" width="120" height="60" as="geometry" />
        </mxCell>
        <mxCell id="Jm7xgiOzmydIAtgpkPB9-3" style="edgeStyle=orthogonalEdgeStyle;rounded=0;orthogonalLoop=1;jettySize=auto;html=1;exitX=0.5;exitY=1;exitDx=0;exitDy=0;entryX=0.5;entryY=0;entryDx=0;entryDy=0;" edge="1" parent="1" source="PXHrtTBhxYkyW6kzS82V-1" target="H_BLsE3B1nlGvG25qTbP-1">
          <mxGeometry relative="1" as="geometry" />
        </mxCell>
        <mxCell id="PXHrtTBhxYkyW6kzS82V-1" value="Calculate Player Health" style="rounded=0;whiteSpace=wrap;html=1;" vertex="1" parent="1">
          <mxGeometry x="180" y="570" width="120" height="60" as="geometry" />
        </mxCell>
        <mxCell id="H_BLsE3B1nlGvG25qTbP-4" style="edgeStyle=orthogonalEdgeStyle;rounded=0;orthogonalLoop=1;jettySize=auto;html=1;exitX=0.75;exitY=1;exitDx=0;exitDy=0;entryX=0.5;entryY=0;entryDx=0;entryDy=0;" edge="1" parent="1" source="H_BLsE3B1nlGvG25qTbP-1" target="H_BLsE3B1nlGvG25qTbP-3">
          <mxGeometry relative="1" as="geometry">
            <Array as="points">
              <mxPoint x="270" y="720" />
              <mxPoint x="320" y="720" />
            </Array>
          </mxGeometry>
        </mxCell>
        <mxCell id="H_BLsE3B1nlGvG25qTbP-5" style="edgeStyle=orthogonalEdgeStyle;rounded=0;orthogonalLoop=1;jettySize=auto;html=1;exitX=0.25;exitY=1;exitDx=0;exitDy=0;entryX=0.5;entryY=0;entryDx=0;entryDy=0;" edge="1" parent="1" source="H_BLsE3B1nlGvG25qTbP-1" target="H_BLsE3B1nlGvG25qTbP-2">
          <mxGeometry relative="1" as="geometry">
            <Array as="points">
              <mxPoint x="210" y="720" />
              <mxPoint x="160" y="720" />
            </Array>
          </mxGeometry>
        </mxCell>
        <mxCell id="H_BLsE3B1nlGvG25qTbP-1" value="Is Player Pokemon Knocked Out?" style="rounded=0;whiteSpace=wrap;html=1;" vertex="1" parent="1">
          <mxGeometry x="180" y="650" width="120" height="60" as="geometry" />
        </mxCell>
        <mxCell id="sO3mHLcB9E1rEPChIX4b-1" style="edgeStyle=orthogonalEdgeStyle;rounded=0;orthogonalLoop=1;jettySize=auto;html=1;exitX=0.5;exitY=1;exitDx=0;exitDy=0;entryX=0.5;entryY=0;entryDx=0;entryDy=0;" edge="1" parent="1" source="H_BLsE3B1nlGvG25qTbP-2" target="Y3-QY5gHQV83d90RHQVn-1">
          <mxGeometry relative="1" as="geometry" />
        </mxCell>
        <mxCell id="H_BLsE3B1nlGvG25qTbP-2" value="Yes" style="rounded=0;whiteSpace=wrap;html=1;" vertex="1" parent="1">
          <mxGeometry x="100" y="730" width="120" height="60" as="geometry" />
        </mxCell>
        <mxCell id="tYvMaA84Hs-XsygMNqZ6-1" style="edgeStyle=orthogonalEdgeStyle;rounded=0;orthogonalLoop=1;jettySize=auto;html=1;exitX=0.5;exitY=1;exitDx=0;exitDy=0;entryX=0.5;entryY=0;entryDx=0;entryDy=0;" edge="1" parent="1" source="H_BLsE3B1nlGvG25qTbP-3" target="Jm7xgiOzmydIAtgpkPB9-4">
          <mxGeometry relative="1" as="geometry" />
        </mxCell>
        <mxCell id="H_BLsE3B1nlGvG25qTbP-3" value="No" style="rounded=0;whiteSpace=wrap;html=1;" vertex="1" parent="1">
          <mxGeometry x="260" y="730" width="120" height="60" as="geometry" />
        </mxCell>
        <mxCell id="BpFnJ-izs3Q62y_k3BUW-3" style="edgeStyle=orthogonalEdgeStyle;rounded=0;orthogonalLoop=1;jettySize=auto;html=1;exitX=0.25;exitY=1;exitDx=0;exitDy=0;entryX=0.5;entryY=0;entryDx=0;entryDy=0;" edge="1" parent="1" source="Y3-QY5gHQV83d90RHQVn-1" target="BpFnJ-izs3Q62y_k3BUW-1">
          <mxGeometry relative="1" as="geometry">
            <Array as="points">
              <mxPoint x="130" y="880" />
              <mxPoint x="80" y="880" />
            </Array>
          </mxGeometry>
        </mxCell>
        <mxCell id="BpFnJ-izs3Q62y_k3BUW-4" style="edgeStyle=orthogonalEdgeStyle;rounded=0;orthogonalLoop=1;jettySize=auto;html=1;exitX=0.75;exitY=1;exitDx=0;exitDy=0;entryX=0.5;entryY=0;entryDx=0;entryDy=0;" edge="1" parent="1" source="Y3-QY5gHQV83d90RHQVn-1" target="BpFnJ-izs3Q62y_k3BUW-2">
          <mxGeometry relative="1" as="geometry">
            <Array as="points">
              <mxPoint x="190" y="880" />
              <mxPoint x="240" y="880" />
            </Array>
          </mxGeometry>
        </mxCell>
        <mxCell id="Y3-QY5gHQV83d90RHQVn-1" value="Check For Available Pokemon" style="rounded=0;whiteSpace=wrap;html=1;" vertex="1" parent="1">
          <mxGeometry x="100" y="810" width="120" height="60" as="geometry" />
        </mxCell>
        <mxCell id="v-Hkx90wyM7AtVR7ozLm-1" style="edgeStyle=orthogonalEdgeStyle;rounded=0;orthogonalLoop=1;jettySize=auto;html=1;exitX=0.5;exitY=1;exitDx=0;exitDy=0;entryX=0.5;entryY=0;entryDx=0;entryDy=0;" edge="1" parent="1" source="BpFnJ-izs3Q62y_k3BUW-1" target="GN0AIuIbpFZg_C1ylsI8-1">
          <mxGeometry relative="1" as="geometry" />
        </mxCell>
        <mxCell id="BpFnJ-izs3Q62y_k3BUW-1" value="Yes" style="rounded=0;whiteSpace=wrap;html=1;" vertex="1" parent="1">
          <mxGeometry x="20" y="890" width="120" height="60" as="geometry" />
        </mxCell>
        <mxCell id="Jm7xgiOzmydIAtgpkPB9-2" style="edgeStyle=orthogonalEdgeStyle;rounded=0;orthogonalLoop=1;jettySize=auto;html=1;exitX=0.5;exitY=1;exitDx=0;exitDy=0;" edge="1" parent="1" source="BpFnJ-izs3Q62y_k3BUW-2" target="Jm7xgiOzmydIAtgpkPB9-1">
          <mxGeometry relative="1" as="geometry" />
        </mxCell>
        <mxCell id="BpFnJ-izs3Q62y_k3BUW-2" value="No" style="rounded=0;whiteSpace=wrap;html=1;" vertex="1" parent="1">
          <mxGeometry x="180" y="890" width="120" height="60" as="geometry" />
        </mxCell>
        <mxCell id="2SASpuaPpEJzmC0mCRvu-2" style="edgeStyle=orthogonalEdgeStyle;rounded=0;orthogonalLoop=1;jettySize=auto;html=1;exitX=0.5;exitY=1;exitDx=0;exitDy=0;entryX=0.5;entryY=0;entryDx=0;entryDy=0;" edge="1" parent="1" source="GN0AIuIbpFZg_C1ylsI8-1" target="2SASpuaPpEJzmC0mCRvu-1">
          <mxGeometry relative="1" as="geometry" />
        </mxCell>
        <mxCell id="GN0AIuIbpFZg_C1ylsI8-1" value="Player Selects New Pokemon From Available Pokemon" style="rounded=0;whiteSpace=wrap;html=1;" vertex="1" parent="1">
          <mxGeometry x="20" y="970" width="120" height="60" as="geometry" />
        </mxCell>
        <mxCell id="2SASpuaPpEJzmC0mCRvu-1" value="Player Turn" style="rounded=0;whiteSpace=wrap;html=1;fillColor=#e1d5e7;strokeColor=#9673a6;" vertex="1" parent="1">
          <mxGeometry x="20" y="1050" width="120" height="60" as="geometry" />
        </mxCell>
        <mxCell id="Jm7xgiOzmydIAtgpkPB9-1" value="Battle Over Player Loses" style="rounded=0;whiteSpace=wrap;html=1;fillColor=#f8cecc;strokeColor=#b85450;" vertex="1" parent="1">
          <mxGeometry x="180" y="970" width="120" height="60" as="geometry" />
        </mxCell>
        <mxCell id="tYvMaA84Hs-XsygMNqZ6-3" style="edgeStyle=orthogonalEdgeStyle;rounded=0;orthogonalLoop=1;jettySize=auto;html=1;exitX=0.5;exitY=1;exitDx=0;exitDy=0;entryX=0.5;entryY=0;entryDx=0;entryDy=0;" edge="1" parent="1" source="Jm7xgiOzmydIAtgpkPB9-4" target="tYvMaA84Hs-XsygMNqZ6-2">
          <mxGeometry relative="1" as="geometry">
            <Array as="points">
              <mxPoint x="320" y="880" />
              <mxPoint x="400" y="880" />
            </Array>
          </mxGeometry>
        </mxCell>
        <mxCell id="Jm7xgiOzmydIAtgpkPB9-4" value="Announce Player Pokemon Health" style="rounded=0;whiteSpace=wrap;html=1;" vertex="1" parent="1">
          <mxGeometry x="260" y="810" width="120" height="60" as="geometry" />
        </mxCell>
        <mxCell id="tYvMaA84Hs-XsygMNqZ6-2" value="Player Turn" style="rounded=0;whiteSpace=wrap;html=1;fillColor=#e1d5e7;strokeColor=#9673a6;" vertex="1" parent="1">
          <mxGeometry x="340" y="890" width="120" height="60" as="geometry" />
        </mxCell>
        <mxCell id="tYvMaA84Hs-XsygMNqZ6-9" style="edgeStyle=orthogonalEdgeStyle;rounded=0;orthogonalLoop=1;jettySize=auto;html=1;exitX=0.25;exitY=1;exitDx=0;exitDy=0;entryX=0.5;entryY=0;entryDx=0;entryDy=0;" edge="1" parent="1" source="tYvMaA84Hs-XsygMNqZ6-4" target="tYvMaA84Hs-XsygMNqZ6-7">
          <mxGeometry relative="1" as="geometry">
            <Array as="points">
              <mxPoint x="580" y="460" />
              <mxPoint x="540" y="460" />
            </Array>
          </mxGeometry>
        </mxCell>
        <mxCell id="tYvMaA84Hs-XsygMNqZ6-11" style="edgeStyle=orthogonalEdgeStyle;rounded=0;orthogonalLoop=1;jettySize=auto;html=1;exitX=0.75;exitY=1;exitDx=0;exitDy=0;entryX=0.5;entryY=0;entryDx=0;entryDy=0;" edge="1" parent="1" source="tYvMaA84Hs-XsygMNqZ6-4" target="tYvMaA84Hs-XsygMNqZ6-8">
          <mxGeometry relative="1" as="geometry">
            <Array as="points">
              <mxPoint x="640" y="460" />
              <mxPoint x="700" y="460" />
            </Array>
          </mxGeometry>
        </mxCell>
        <mxCell id="tYvMaA84Hs-XsygMNqZ6-4" value="Is Opponents Pokemon At Full Heath" style="rounded=0;whiteSpace=wrap;html=1;" vertex="1" parent="1">
          <mxGeometry x="550" y="390" width="120" height="60" as="geometry" />
        </mxCell>
        <mxCell id="tYvMaA84Hs-XsygMNqZ6-15" style="edgeStyle=orthogonalEdgeStyle;rounded=0;orthogonalLoop=1;jettySize=auto;html=1;exitX=0.5;exitY=1;exitDx=0;exitDy=0;" edge="1" parent="1" source="tYvMaA84Hs-XsygMNqZ6-7" target="tYvMaA84Hs-XsygMNqZ6-12">
          <mxGeometry relative="1" as="geometry" />
        </mxCell>
        <mxCell id="tYvMaA84Hs-XsygMNqZ6-7" value="Yes" style="rounded=0;whiteSpace=wrap;html=1;" vertex="1" parent="1">
          <mxGeometry x="480" y="470" width="120" height="60" as="geometry" />
        </mxCell>
        <mxCell id="tYvMaA84Hs-XsygMNqZ6-19" style="edgeStyle=orthogonalEdgeStyle;rounded=0;orthogonalLoop=1;jettySize=auto;html=1;exitX=0.5;exitY=1;exitDx=0;exitDy=0;entryX=0.5;entryY=0;entryDx=0;entryDy=0;" edge="1" parent="1" source="tYvMaA84Hs-XsygMNqZ6-8" target="tYvMaA84Hs-XsygMNqZ6-16">
          <mxGeometry relative="1" as="geometry" />
        </mxCell>
        <mxCell id="tYvMaA84Hs-XsygMNqZ6-8" value="No" style="rounded=0;whiteSpace=wrap;html=1;" vertex="1" parent="1">
          <mxGeometry x="640" y="470" width="120" height="60" as="geometry" />
        </mxCell>
        <mxCell id="tYvMaA84Hs-XsygMNqZ6-14" style="edgeStyle=orthogonalEdgeStyle;rounded=0;orthogonalLoop=1;jettySize=auto;html=1;exitX=0.5;exitY=1;exitDx=0;exitDy=0;entryX=0.5;entryY=0;entryDx=0;entryDy=0;" edge="1" parent="1" source="tYvMaA84Hs-XsygMNqZ6-12" target="tYvMaA84Hs-XsygMNqZ6-13">
          <mxGeometry relative="1" as="geometry" />
        </mxCell>
        <mxCell id="tYvMaA84Hs-XsygMNqZ6-12" value="Announce That Opponent Was Tried To Heal But Was Already At Full Heath&amp;nbsp;" style="rounded=0;whiteSpace=wrap;html=1;" vertex="1" parent="1">
          <mxGeometry x="480" y="560" width="120" height="60" as="geometry" />
        </mxCell>
        <mxCell id="tYvMaA84Hs-XsygMNqZ6-13" value="Player Turn" style="rounded=0;whiteSpace=wrap;html=1;fillColor=#e1d5e7;strokeColor=#9673a6;" vertex="1" parent="1">
          <mxGeometry x="480" y="640" width="120" height="60" as="geometry" />
        </mxCell>
        <mxCell id="tYvMaA84Hs-XsygMNqZ6-20" style="edgeStyle=orthogonalEdgeStyle;rounded=0;orthogonalLoop=1;jettySize=auto;html=1;exitX=0.5;exitY=1;exitDx=0;exitDy=0;" edge="1" parent="1" source="tYvMaA84Hs-XsygMNqZ6-16" target="tYvMaA84Hs-XsygMNqZ6-18">
          <mxGeometry relative="1" as="geometry" />
        </mxCell>
        <mxCell id="tYvMaA84Hs-XsygMNqZ6-16" value="Heal 25% Of Opponents Pokemons Health" style="rounded=0;whiteSpace=wrap;html=1;" vertex="1" parent="1">
          <mxGeometry x="640" y="560" width="120" height="60" as="geometry" />
        </mxCell>
        <mxCell id="tYvMaA84Hs-XsygMNqZ6-24" style="edgeStyle=orthogonalEdgeStyle;rounded=0;orthogonalLoop=1;jettySize=auto;html=1;exitX=0.5;exitY=1;exitDx=0;exitDy=0;entryX=0.5;entryY=0;entryDx=0;entryDy=0;" edge="1" parent="1" source="tYvMaA84Hs-XsygMNqZ6-18" target="tYvMaA84Hs-XsygMNqZ6-23">
          <mxGeometry relative="1" as="geometry" />
        </mxCell>
        <mxCell id="tYvMaA84Hs-XsygMNqZ6-18" value="Announce Opponents Pokemons Health" style="rounded=0;whiteSpace=wrap;html=1;" vertex="1" parent="1">
          <mxGeometry x="640" y="640" width="120" height="60" as="geometry" />
        </mxCell>
        <mxCell id="tYvMaA84Hs-XsygMNqZ6-21" value="Player Turn" style="rounded=0;whiteSpace=wrap;html=1;fillColor=#e1d5e7;strokeColor=#9673a6;" vertex="1" parent="1">
          <mxGeometry x="640" y="800" width="120" height="60" as="geometry" />
        </mxCell>
        <mxCell id="tYvMaA84Hs-XsygMNqZ6-25" style="edgeStyle=orthogonalEdgeStyle;rounded=0;orthogonalLoop=1;jettySize=auto;html=1;exitX=0.5;exitY=1;exitDx=0;exitDy=0;entryX=0.5;entryY=0;entryDx=0;entryDy=0;" edge="1" parent="1" source="tYvMaA84Hs-XsygMNqZ6-23" target="tYvMaA84Hs-XsygMNqZ6-21">
          <mxGeometry relative="1" as="geometry" />
        </mxCell>
        <mxCell id="tYvMaA84Hs-XsygMNqZ6-23" value="potions - 1" style="rounded=0;whiteSpace=wrap;html=1;" vertex="1" parent="1">
          <mxGeometry x="640" y="720" width="120" height="60" as="geometry" />
        </mxCell>
        <mxCell id="tYvMaA84Hs-XsygMNqZ6-30" style="edgeStyle=orthogonalEdgeStyle;rounded=0;orthogonalLoop=1;jettySize=auto;html=1;exitX=0.5;exitY=1;exitDx=0;exitDy=0;entryX=0.5;entryY=0;entryDx=0;entryDy=0;" edge="1" parent="1" source="tYvMaA84Hs-XsygMNqZ6-26" target="tYvMaA84Hs-XsygMNqZ6-29">
          <mxGeometry relative="1" as="geometry" />
        </mxCell>
        <mxCell id="tYvMaA84Hs-XsygMNqZ6-32" style="edgeStyle=orthogonalEdgeStyle;rounded=0;orthogonalLoop=1;jettySize=auto;html=1;exitX=1;exitY=0.5;exitDx=0;exitDy=0;entryX=0.5;entryY=0;entryDx=0;entryDy=0;" edge="1" parent="1" source="tYvMaA84Hs-XsygMNqZ6-26" target="tYvMaA84Hs-XsygMNqZ6-28">
          <mxGeometry relative="1" as="geometry" />
        </mxCell>
        <mxCell id="tYvMaA84Hs-XsygMNqZ6-26" value="Does opponent have potions" style="rounded=0;whiteSpace=wrap;html=1;" vertex="1" parent="1">
          <mxGeometry x="550" y="230" width="120" height="60" as="geometry" />
        </mxCell>
        <mxCell id="tYvMaA84Hs-XsygMNqZ6-36" style="edgeStyle=orthogonalEdgeStyle;rounded=0;orthogonalLoop=1;jettySize=auto;html=1;exitX=0.5;exitY=1;exitDx=0;exitDy=0;entryX=0.25;entryY=0;entryDx=0;entryDy=0;" edge="1" parent="1" source="tYvMaA84Hs-XsygMNqZ6-28" target="cpTdH8z6MFsJDL-kwgdY-2">
          <mxGeometry relative="1" as="geometry">
            <Array as="points">
              <mxPoint x="760" y="390" />
              <mxPoint x="840" y="390" />
              <mxPoint x="840" y="20" />
              <mxPoint x="90" y="20" />
            </Array>
          </mxGeometry>
        </mxCell>
        <mxCell id="tYvMaA84Hs-XsygMNqZ6-28" value="No" style="rounded=0;whiteSpace=wrap;html=1;" vertex="1" parent="1">
          <mxGeometry x="700" y="310" width="120" height="60" as="geometry" />
        </mxCell>
        <mxCell id="tYvMaA84Hs-XsygMNqZ6-31" style="edgeStyle=orthogonalEdgeStyle;rounded=0;orthogonalLoop=1;jettySize=auto;html=1;exitX=0.5;exitY=1;exitDx=0;exitDy=0;entryX=0.5;entryY=0;entryDx=0;entryDy=0;" edge="1" parent="1" source="tYvMaA84Hs-XsygMNqZ6-29" target="tYvMaA84Hs-XsygMNqZ6-4">
          <mxGeometry relative="1" as="geometry" />
        </mxCell>
        <mxCell id="tYvMaA84Hs-XsygMNqZ6-29" value="Yes" style="rounded=0;whiteSpace=wrap;html=1;" vertex="1" parent="1">
          <mxGeometry x="550" y="310" width="120" height="60" as="geometry" />
        </mxCell>
      </root>
    </mxGraphModel>
  </diagram>
</mxfile>
